<svg xmlns="http://www.w3.org/2000/svg" viewBox="0 0 140 140" fill="none">
  <path d="M11.6666 34.9999C11.6666 31.9057 12.8958 28.9383 15.0837 26.7503C17.2716 24.5624 20.2391 23.3333 23.3333 23.3333H116.667C119.761 23.3333 122.728 24.5624 124.916 26.7503C127.104 28.9383 128.333 31.9057 128.333 34.9999V105C128.333 108.094 127.104 111.062 124.916 113.249C122.728 115.437 119.761 116.667 116.667 116.667H23.3333C20.2391 116.667 17.2716 115.437 15.0837 113.249C12.8958 111.062 11.6666 108.094 11.6666 105V34.9999ZM32.1941 34.9999L70 68.0807L107.806 34.9999H32.1941ZM116.667 42.7524L73.8441 80.2257C72.7804 81.1578 71.4143 81.6716 70 81.6716C68.5857 81.6716 67.2195 81.1578 66.1558 80.2257L23.3333 42.7524V105H116.667V42.7524Z" 
  
  fill="#FF88AE"/>
</svg>