<svg xmlns="http://www.w3.org/2000/svg" viewBox="0 0 70 70" fill="none">
  <path d="M37.0621 6.68791L63.3121 32.9379C65.1496 34.7754 63.8488 37.9167 61.25 37.9167H58.3333V55.4167C58.3333 57.7373 57.4115 59.9629 55.7705 61.6039C54.1296 63.2448 51.904 64.1667 49.5833 64.1667H46.6667V43.75C46.6668 41.5181 45.8141 39.3706 44.2829 37.7467C42.7518 36.1229 40.658 35.1455 38.43 35.0146L37.9167 35H32.0833C29.7627 35 27.5371 35.9219 25.8962 37.5628C24.2552 39.2038 23.3333 41.4294 23.3333 43.75V64.1667H20.4167C18.096 64.1667 15.8704 63.2448 14.2295 61.6039C12.5886 59.9629 11.6667 57.7373 11.6667 55.4167V37.9167H8.75001C6.15418 37.9167 4.85043 34.7754 6.68793 32.9379L32.9379 6.68791C33.4849 6.14112 34.2266 5.83395 35 5.83395C35.7734 5.83395 36.5151 6.14112 37.0621 6.68791ZM37.9167 40.8333C38.6902 40.8333 39.4321 41.1406 39.9791 41.6876C40.5261 42.2346 40.8333 42.9765 40.8333 43.75V64.1667H29.1667V43.75C29.1668 43.0356 29.4291 42.3461 29.9038 41.8122C30.3785 41.2784 31.0326 40.9373 31.7421 40.8537L32.0833 40.8333H37.9167Z" 
  fill="#FFA1BF"/>
</svg>