<svg xmlns="http://www.w3.org/2000/svg" viewBox="0 0 140 140" fill="none">
  <path fill-rule="evenodd" clip-rule="evenodd" d="M17.5 46.6667C17.5 38.9312 20.5729 31.5125 26.0427 26.0427C31.5125 20.5729 38.9312 17.5 46.6667 17.5H93.3333C101.069 17.5 108.487 20.5729 113.957 26.0427C119.427 31.5125 122.5 38.9312 122.5 46.6667V93.3333C122.5 101.069 119.427 108.487 113.957 113.957C108.487 119.427 101.069 122.5 93.3333 122.5H46.6667C38.9312 122.5 31.5125 119.427 26.0427 113.957C20.5729 108.487 17.5 101.069 17.5 93.3333V46.6667ZM46.6667 29.1667C42.0254 29.1667 37.5742 31.0104 34.2923 34.2923C31.0104 37.5742 29.1667 42.0254 29.1667 46.6667V93.3333C29.1667 97.9746 31.0104 102.426 34.2923 105.708C37.5742 108.99 42.0254 110.833 46.6667 110.833H93.3333C97.9746 110.833 102.426 108.99 105.708 105.708C108.99 102.426 110.833 97.9746 110.833 93.3333V46.6667C110.833 42.0254 108.99 37.5742 105.708 34.2923C102.426 31.0104 97.9746 29.1667 93.3333 29.1667H46.6667ZM90.9825 42.0817C90.9825 40.5346 91.5971 39.0508 92.691 37.9569C93.785 36.8629 95.2687 36.2483 96.8158 36.2483H96.8742C98.4213 36.2483 99.905 36.8629 100.999 37.9569C102.093 39.0508 102.708 40.5346 102.708 42.0817C102.708 43.6288 102.093 45.1125 100.999 46.2065C99.905 47.3004 98.4213 47.915 96.8742 47.915H96.8158C95.2687 47.915 93.785 47.3004 92.691 46.2065C91.5971 45.1125 90.9825 43.6288 90.9825 42.0817ZM70 52.5C65.3587 52.5 60.9075 54.3437 57.6256 57.6256C54.3437 60.9075 52.5 65.3587 52.5 70C52.5 74.6413 54.3437 79.0925 57.6256 82.3744C60.9075 85.6563 65.3587 87.5 70 87.5C74.6413 87.5 79.0925 85.6563 82.3744 82.3744C85.6563 79.0925 87.5 74.6413 87.5 70C87.5 65.3587 85.6563 60.9075 82.3744 57.6256C79.0925 54.3437 74.6413 52.5 70 52.5ZM40.8333 70C40.8333 62.2645 43.9062 54.8459 49.3761 49.3761C54.8459 43.9062 62.2645 40.8333 70 40.8333C77.7355 40.8333 85.1541 43.9062 90.6239 49.3761C96.0938 54.8459 99.1667 62.2645 99.1667 70C99.1667 77.7355 96.0938 85.1541 90.6239 90.6239C85.1541 96.0938 77.7355 99.1667 70 99.1667C62.2645 99.1667 54.8459 96.0938 49.3761 90.6239C43.9062 85.1541 40.8333 77.7355 40.8333 70Z" 
  
  fill="#FF88AE"/>
</svg>