<svg xmlns="http://www.w3.org/2000/svg" viewBox="0 0 140 140" fill="none">
  <path d="M110.833 17.5C113.928 17.5 116.895 18.7292 119.083 20.9171C121.271 23.105 122.5 26.0725 122.5 29.1667V110.833C122.5 113.928 121.271 116.895 119.083 119.083C116.895 121.271 113.928 122.5 110.833 122.5H29.1667C26.0725 122.5 23.105 121.271 20.9171 119.083C18.7292 116.895 17.5 113.928 17.5 110.833V29.1667C17.5 26.0725 18.7292 23.105 20.9171 20.9171C23.105 18.7292 26.0725 17.5 29.1667 17.5H110.833ZM107.917 107.917V77C107.917 71.9565 105.913 67.1195 102.347 63.5532C98.7805 59.9869 93.9435 57.9833 88.9 57.9833C83.9417 57.9833 78.1667 61.0167 75.3667 65.5667V59.0917H59.0917V107.917H75.3667V79.1583C75.3667 74.6667 78.9833 70.9917 83.475 70.9917C85.6409 70.9917 87.7182 71.8521 89.2497 73.3836C90.7813 74.9152 91.6417 76.9924 91.6417 79.1583V107.917H107.917ZM40.1333 49.9333C42.7325 49.9333 45.2251 48.9008 47.063 47.063C48.9008 45.2251 49.9333 42.7325 49.9333 40.1333C49.9333 34.7083 45.5583 30.275 40.1333 30.275C37.5187 30.275 35.0112 31.3136 33.1624 33.1624C31.3136 35.0112 30.275 37.5187 30.275 40.1333C30.275 45.5583 34.7083 49.9333 40.1333 49.9333ZM48.2417 107.917V59.0917H32.0833V107.917H48.2417Z" 
  
  fill="#FF88AE"/>
</svg>