<svg xmlns="http://www.w3.org/2000/svg" width="1280" height="313" viewBox="0 0 1280 313" fill="none">
  <path d="M0 313H1280V132.183C1267.27 100.642 1229.01 88.4184 1200.35 106.73L1185.1 116.47C1182.64 118.042 1179.46 117.904 1177.14 116.125L1160.38 103.251C1113.74 67.4125 1046.38 79.385 1014.94 129.104L992.85 164.039C990.078 168.423 983.994 169.186 980.225 165.623C951.621 138.583 907.886 135.55 875.823 158.383L863.498 167.161C859.26 170.178 853.417 169.443 850.059 165.47L840.464 154.116C813.69 122.433 770.137 110.569 730.994 124.296L715.022 129.896C711.097 131.273 706.73 130.076 704.055 126.89L682.656 101.407C639.961 50.564 560.485 54.6767 523.266 109.655L504.02 138.084C501.163 142.306 495.587 143.702 491.077 141.325L487.727 139.56C445.691 117.409 393.872 127.897 363.757 164.65L357.659 172.093C354.435 176.028 348.772 176.916 344.499 174.156L335.525 168.361C301.601 146.455 257.831 147.102 224.569 170.002L219.817 173.274C215.237 176.427 208.964 175.238 205.855 170.628L179.585 131.666C143.22 77.7339 65.8563 72.3263 22.3421 120.675L0 145.5V0V313Z" fill="#FCF4F8"/>
</svg>